# xmcd
#
# Track frame offsets: 
#        150
#        23087
#        46402
#        72622
#        98467
#        123147
#        146310
#        171037
#        196815
#        222287
#
# Disc length: 3388 seconds
#
# Revision: 0
# Processed by: cddbd v1.5PL3 Copyright (c) Steve Scherf et al.
# Submitted via: ExactAudioCopy v0.95a5
#
DISCID=820d3a0a
DTITLE=Art Madison - Into the A.M.
DYEAR=1900
DGENRE=
TTITLE0=Blowing my mind
TTITLE1=Sexy (Instrumental)
TTITLE2=Too cool
TTITLE3=Just a little Love
TTITLE4=Inside of you
TTITLE5=Sexy
TTITLE6=Blowing my mind (Instrumental)
TTITLE7=In this world (we're living)
TTITLE8=Gonna take time
TTITLE9=Let it flow
EXTD=
EXTT0=
EXTT1=
EXTT2=
EXTT3=
EXTT4=
EXTT5=
EXTT6=
EXTT7=
EXTT8=
EXTT9=
PLAYORDER=
